<svg width="14" height="14" viewBox="0 0 14 14" fill="none" xmlns="http://www.w3.org/2000/svg">
<g clip-path="url(#clip0_12_55)">
<path d="M7.10478 0.505537C7.0621 0.418402 6.9379 0.418402 6.89523 0.505537L4.86334 4.65426C4.84641 4.68884 4.81349 4.71284 4.77538 4.71839L0.232594 5.38002C0.137147 5.39392 0.098838 5.51106 0.167624 5.57867L3.45654 8.81159C3.48377 8.83836 3.49617 8.87676 3.48976 8.9144L2.71237 13.4747C2.6961 13.5701 2.7964 13.6427 2.88195 13.5974L6.94542 11.4467C6.97956 11.4287 7.02044 11.4287 7.05458 11.4467L11.118 13.5974C11.2036 13.6427 11.3039 13.5701 11.2876 13.4747L10.5103 8.91445C10.5038 8.87678 10.5163 8.83835 10.5435 8.81158L13.8323 5.58329C13.9011 5.51573 13.8629 5.39859 13.7675 5.3846L9.22454 4.71844C9.18647 4.71286 9.15361 4.68887 9.13669 4.65432L7.10478 0.505537Z" fill="#FFC400"/>
</g>
<defs>
<clipPath id="clip0_12_55">
<rect width="14" height="14" fill="white"/>
</clipPath>
</defs>
</svg>
